<?xml version="1.0" encoding="UTF-8"?>
<svg xmlns="http://www.w3.org/2000/svg" viewBox="0 0 347.34 686.42">
  <defs>
    <style>
      .cls-1 {
        fill: #010101;
      }

      .cls-1,
      .cls-2,
      .cls-3,
      .cls-4,
      .papcol,
      .cls-6,
      .cls-7 {
        stroke-width: 0px;
      }

      .cls-2 {
        fill: #726969;
      }

      .cls-3 {
        fill: #d3d3d3;
      }

      .cls-4 {
        fill: #9a9292;
      }

      .papcol {
        fill: #336532;
      }

      .cls-6 {
        fill: #0d0d0d;
      }

      .cls-7 {
        fill: #fff;
      }

      .cls-8 {
        fill: none;
        stroke: #010101;
        stroke-miterlimit: 10;
      }
    </style>
  </defs>
  <g id="Layer_1" data-name="Layer 1">
    <polygon class="cls-6"
      points="346.38 226.75 346.38 251.58 .97 251.58 .97 226.74 8.84 222.65 8.87 222.64 9.11 222.55 9.4 222.51 9.44 222.51 108.24 218.72 108.25 218.72 130.26 218.72 217.09 218.72 239.11 218.72 239.13 218.72 337.91 222.51 337.94 222.51 338.19 222.54 338.48 222.64 338.5 222.65 346.38 226.75" />
    <path class="cls-1" d="M346.84,251.58v.23c0-.13-.1-.23-.23-.23h.23Z" />
    <path class="cls-1"
      d="M346.84,226.64v24.94h-.46v-24.83l.12.06s.07.02.11.02c.08,0,.17-.04.21-.12.01-.03.02-.05.02-.07Z" />
    <path class="cls-1"
      d="M346.84,226.6v.04s-.01.04-.02.07c-.04.08-.13.12-.21.12-.04,0-.07-.01-.11-.02l-.12-.06v-.15c0-.13.1-.23.23-.23.06,0,.12.03.16.07.02.02.04.04.05.07s.02.06.02.09Z" />
    <path class="cls-1" d="M346.82,226.51s-.03-.05-.05-.07c.03.01.05.04.05.07Z" />
    <path class="cls-1"
      d="M346.72,226.39s.03.02.05.05c-.04-.04-.1-.07-.16-.07-.13,0-.23.1-.23.23v.15l-7.88-4.1s.06.02.08.02c.1,0,.19-.06.22-.16s0-.2-.08-.26l8,4.14Z" />
    <path class="cls-1" d="M346.61,251.58c.13,0,.23.1.23.23s-.1.23-.23.23-.23-.1-.23-.23v-.23h.23Z" />
    <path class="cls-1" d="M346.61,252.04H.74c.12,0,.23-.1.23-.23v-.23h345.41v.23c0,.13.1.23.23.23Z" />
    <path class="cls-1"
      d="M338.72,222.25c.08.06.11.16.08.26s-.12.16-.22.16c-.02,0-.05-.01-.08-.02h-.02c-.12-.07-.16-.21-.1-.32.05-.11.17-.15.27-.11h.01s.05.02.06.03Z" />
    <path class="cls-1"
      d="M338.65,222.22c-.1-.04-.22,0-.27.11-.06.11-.02.25.1.31l-.29-.1-.25-.03c.13,0,.23-.1.23-.22.01-.12-.08-.23-.2-.24l.33.04.35.13Z" />
    <path class="cls-1"
      d="M337.97,222.05c.12.01.21.12.2.24,0,.12-.1.22-.23.22h-.03c-.13-.02-.22-.14-.2-.27.02-.11.12-.19.23-.19h.03Z" />
    <path class="cls-1"
      d="M243.36,218.42l94.58,3.63c-.11,0-.21.08-.23.19-.02.13.07.25.2.27l-98.78-3.79h4c.13,0,.23-.1.23-.23v-.07Z" />
    <path class="cls-1" d="M243.36,218.42v.07s0-.05-.02-.07h.02Z" />
    <path class="cls-1"
      d="M243.36,202.19v16.23h-.02c-.02-.1-.11-.16-.21-.16h-.23v-16.07c0,.13.1.23.23.23s.23-.1.23-.23Z" />
    <path class="cls-1" d="M243.34,218.42s.02.04.02.07c0,.13-.1.23-.23.23s-.23-.1-.23-.23v-.09l.44.02Z" />
    <path class="cls-1" d="M243.34,218.42l-.44-.02v-.14h.23c.1,0,.19.06.21.16Z" />
    <circle class="cls-1" cx="243.13" cy="202.19" r=".23" />
    <path class="cls-1"
      d="M243.13,218.72h-4.02l-1.82-.07c.13,0,.23-.1.23-.23,0-.06-.03-.12-.07-.16h1.68l3.77.14v.09c0,.13.1.23.23.23Z" />
    <polygon class="cls-1" points="242.9 218.26 242.9 218.4 239.13 218.26 242.9 218.26" />
    <path class="cls-2" d="M242.9,202.19v16.07h-3.79l-1.8-.07h-19.99V23.82h25.58v178.37Z" />
    <path class="cls-1" d="M239.11,218.26h-1.66s-.08-.06-.14-.07l1.8.07Z" />
    <path class="cls-1" d="M239.11,218.72h-22.02c.06,0,.12-.03.16-.08h20.03s.01.01.01.01l1.82.07Z" />
    <path class="cls-1"
      d="M237.45,218.26s.07.1.07.16c0,.13-.1.23-.23.23h-.01c-.13,0-.23-.11-.22-.24,0-.06.03-.11.07-.15h.32Z" />
    <path class="cls-1" d="M237.45,218.26h-.32s.09-.07.15-.07h.03c.06.01.11.03.14.07Z" />
    <path class="cls-1" d="M217.32,218.18h19.96c-.06.01-.11.04-.15.08h-19.81v-.08Z" />
    <path class="cls-1" d="M237.28,218.65h-20.02c.04-.05.06-.1.06-.16v-.23h19.81s-.07.09-.07.15c-.01.13.09.24.22.24Z" />
    <path class="cls-1" d="M217.32,218.26v.23c0-.13-.11-.23-.23-.23h.23Z" />
    <polygon class="cls-1"
      points="217.32 218.18 217.32 218.26 217.09 218.26 216.85 218.26 216.85 218.18 217.32 218.18" />
    <path class="cls-1" d="M217.32,168.87v49.31h-.47v-49.08h.24c.12,0,.23-.1.23-.23Z" />
    <path class="cls-1" d="M217.32,79.89v88.98c0-.13-.11-.23-.23-.23h-.24v-88.52h.24c.12,0,.23-.1.23-.23Z" />
    <path class="cls-1" d="M217.32,73.39v6.5c0-.13-.11-.23-.23-.23h-.24v-6.04h.24c.12,0,.23-.1.23-.23Z" />
    <path class="cls-1" d="M217.32,70.72v2.67c0-.13-.11-.23-.23-.23h-.24v-2.21h.24c.12,0,.23-.11.23-.23Z" />
    <path class="cls-1" d="M217.32,62.92v7.8c0-.13-.11-.24-.23-.24v-7.79c.12,0,.23.1.23.23Z" />
    <path class="cls-1" d="M217.32,57.52v5.4c0-.13-.11-.23-.23-.23v-4.93c.12,0,.23-.11.23-.24Z" />
    <path class="cls-1" d="M217.32,33.49v24.03c0,.13-.11.24-.23.24v-24.04c.12,0,.23-.11.23-.23Z" />
    <path class="cls-1" d="M217.32,23.82v9.67c0-.13-.11-.24-.23-.24v-9.43h.23Z" />
    <path class="cls-1"
      d="M217.32,218.49c0,.06-.02.11-.06.15h-.35s-.06-.09-.06-.15c0-.13.11-.23.24-.23.12,0,.23.1.23.23Z" />
    <path class="cls-1" d="M216.92,218.64h.33c-.04.05-.1.08-.16.08-.07,0-.12-.03-.17-.08Z" />
    <path class="cls-1" d="M217.09,33.25c.12,0,.23.11.23.24,0,.12-.11.23-.23.23v-.47Z" />
    <path class="cls-1" d="M217.09,70.48c.12,0,.23.11.23.24,0,.12-.11.23-.23.23-.13,0-.24-.11-.24-.23h.24v-.24Z" />
    <path class="cls-1" d="M217.09,73.16c.12,0,.23.1.23.23s-.11.23-.23.23h-.24v-.46h.24Z" />
    <path class="cls-1" d="M217.09,79.66c.12,0,.23.1.23.23s-.11.23-.23.23h-.24v-.46h.24Z" />
    <path class="cls-1" d="M217.09,168.64c.12,0,.23.1.23.23s-.11.23-.23.23h-.24v-.46h.24Z" />
    <path class="cls-1" d="M217.09,70.95h-.24v-.23c0,.12.11.23.24.23Z" />
    <path class="cls-1" d="M216.85,218.26h.24c-.13,0-.24.1-.24.23v-.23Z" />
    <path class="cls-1" d="M217.09,218.72h-86.83c.1,0,.18-.06.22-.14l86.43.06h.01c.05.05.1.08.17.08Z" />
    <path class="cls-1" d="M216.91,218.64l-86.43-.06s.02-.06.02-.09v-.23h86.35v.23c0,.06.02.11.06.15Z" />
    <polygon class="cls-1" points="216.85 218.18 216.85 218.26 130.5 218.26 130.5 218.12 216.85 218.18" />
    <polygon class="cls-2"
      points="216.85 169.1 216.85 218.18 130.5 218.12 130.5 201.16 130.5 187.09 130.5 184.38 130.5 169.16 130.5 169.1 216.85 169.1" />
    <rect class="cls-1" x="130.5" y="168.64" width="86.35" height=".46" />
    <polygon class="cls-4" points="216.85 80.12 216.85 168.64 130.5 168.64 130.5 80.27 130.5 80.12 216.85 80.12" />
    <polygon class="cls-1" points="216.85 79.66 216.85 80.12 130.5 80.12 130.5 79.85 130.5 79.66 216.85 79.66" />
    <rect class="cls-1" x="130.5" y="73.16" width="86.35" height=".46" />
    <rect class="cls-2" x="130.5" y="70.95" width="86.35" height="2.21" />
    <polygon class="cls-1"
      points="216.85 70.72 216.85 70.95 130.5 70.95 130.5 70.72 143.28 70.72 204.07 70.72 216.85 70.72" />
    <path class="cls-1" d="M130.5,218.26v.23c0-.13-.11-.23-.24-.23h.24Z" />
    <polygon class="cls-1" points="130.5 218.12 130.5 218.26 130.26 218.26 130.03 218.26 130.03 218.12 130.5 218.12" />
    <path class="cls-1" d="M130.5,201.16v16.96h-.47v-16.96c0,.13.11.23.23.23.13,0,.24-.1.24-.23Z" />
    <path class="cls-1"
      d="M130.5,187.09v14.07c0,.13-.11.23-.24.23-.12,0-.23-.1-.23-.23v-14.07c0,.13.11.23.23.23.13,0,.24-.1.24-.23Z" />
    <path class="cls-1"
      d="M130.5,184.38v2.71c0-.13-.11-.23-.24-.23-.12,0-.23.1-.23.23v-2.71c0,.13.11.23.23.23.13,0,.24-.1.24-.23Z" />
    <path class="cls-1"
      d="M130.5,169.16v15.22c0-.13-.11-.23-.24-.23-.12,0-.23.1-.23.23v-15.22s.02-.1.06-.14c.04.05.11.08.17.08h.23s0,.04,0,.06Z" />
    <path class="cls-1" d="M130.5,169.1v.06s0-.04,0-.06h0Z" />
    <path class="cls-1"
      d="M130.5,168.64v.46h0c-.03-.09-.12-.17-.23-.17-.07,0-.13.04-.17.09-.04-.04-.06-.09-.06-.15,0-.13.11-.23.23-.23h.24Z" />
    <path class="cls-1" d="M130.5,80.27v88.37h-.24c-.12,0-.23.1-.23.23v-88.6c0,.13.11.23.23.23.13,0,.24-.1.24-.23Z" />
    <path class="cls-1" d="M130.5,80.12v.15c0,.13-.11.23-.24.23-.12,0-.23-.1-.23-.23v-.38c0,.13.11.23.23.23h.24Z" />
    <path class="cls-1" d="M130.5,79.85v.27h-.24c-.12,0-.23-.1-.23-.23.02.11.13.19.23.19.13,0,.24-.1.24-.23Z" />
    <path class="cls-1" d="M130.5,79.66v.19c0-.09-.05-.16-.12-.19h.12Z" />
    <path class="cls-1"
      d="M130.5,79.22v.44h-.12s-.08-.04-.12-.04c-.12,0-.23.1-.23.23v-.63c0-.13.11-.24.23-.24.13,0,.24.11.24.24Z" />
    <path class="cls-1" d="M130.5,73.62v5.6c0-.13-.11-.24-.24-.24-.12,0-.23.11-.23.24v-5.83c0,.13.11.23.23.23h.24Z" />
    <path class="cls-1" d="M130.5,73.16v.46h-.24c-.12,0-.23-.1-.23-.23s.11-.23.23-.23h.24Z" />
    <path class="cls-1" d="M130.5,70.95v2.21h-.24c-.12,0-.23.1-.23.23v-2.67c0,.12.11.23.23.23h.24Z" />
    <path class="cls-1" d="M130.5,70.72v.23h-.24c.13,0,.24-.11.24-.23Z" />
    <path class="cls-1" d="M130.5,218.49s0,.06-.02.09h-.43s-.02-.06-.02-.09c0-.13.11-.23.23-.23.13,0,.24.1.24.23Z" />
    <path class="cls-1" d="M130.26,70.72h.24c0,.12-.11.23-.24.23-.12,0-.23-.11-.23-.23,0-.13.11-.24.23-.24v.24Z" />
    <path class="cls-1" d="M130.49,169.1h-.23c-.06,0-.13-.03-.17-.08.04-.05.1-.09.17-.09.11,0,.2.08.23.17Z" />
    <path class="cls-1" d="M130.05,218.58h.43c-.04.08-.12.14-.22.14-.09,0-.17-.06-.21-.14Z" />
    <path class="cls-1"
      d="M130.38,79.66c.07.03.12.1.12.19,0,.13-.11.23-.24.23-.1,0-.21-.08-.23-.19v-.04c.02-.11.13-.19.23-.19h.12Z" />
    <path class="cls-1" d="M130.38,79.66h-.12c-.1,0-.21.08-.23.19,0-.13.11-.23.23-.23.04,0,.09,0,.12.04Z" />
    <path class="cls-1" d="M130.26,184.15c.13,0,.24.1.24.23s-.11.23-.24.23c-.12,0-.23-.1-.23-.23s.11-.23.23-.23Z" />
    <path class="cls-1" d="M130.26,186.86c.13,0,.24.1.24.23s-.11.23-.24.23c-.12,0-.23-.1-.23-.23s.11-.23.23-.23Z" />
    <path class="cls-1" d="M130.26,62.69v7.79c-.12,0-.23.11-.23.24v-7.8c0-.13.11-.23.23-.23Z" />
    <path class="cls-1" d="M130.26,57.76v4.93c-.12,0-.23.1-.23.23v-5.4c0,.13.11.24.23.24Z" />
    <path class="cls-1" d="M130.26,49.56v8.2c-.12,0-.23-.11-.23-.24v-7.73c0-.13.11-.23.23-.23Z" />
    <path class="cls-1" d="M130.26,33.72v15.84c-.12,0-.23.1-.23.23v-16.3c0,.12.11.23.23.23Z" />
    <path class="cls-1" d="M130.26,33.25v.47c-.12,0-.23-.11-.23-.23,0-.13.11-.24.23-.24Z" />
    <path class="cls-1" d="M130.26,23.82v9.43c-.12,0-.23.11-.23.24v-9.67h.23Z" />
    <path class="cls-1" d="M130.03,218.26h.23c-.12,0-.23.1-.23.23v-.23Z" />
    <path class="cls-1" d="M130.26,218.72h-22.01l3.9-.15h17.9c.04.09.12.15.21.15Z" />
    <path class="cls-1" d="M130.03,168.87c0,.06.02.11.06.15-.04.04-.06.09-.06.14v-.29Z" />
    <path class="cls-1" d="M130.03,218.49s.01.06.02.09h-17.89c.13-.01.23-.12.23-.25,0-.03-.01-.05-.02-.07h17.66v.23Z" />
    <path class="cls-1" d="M130.03,218.12v.14h-17.66c-.03-.09-.12-.15-.22-.15h17.88Z" />
    <path class="cls-2" d="M130.03,201.16v16.96h-17.88s-.02-.01-.02-.01l-3.88.15h-3.8V23.82h25.58v177.34Z" />
    <path class="cls-1"
      d="M112.37,218.26s.02.04.02.07c0,.13-.1.24-.23.24h-.01c-.12,0-.23-.1-.23-.23,0-.03.01-.06.02-.08h.43Z" />
    <path class="cls-1" d="M112.37,218.26h-.43c.03-.08.1-.14.19-.15h.02c.1,0,.19.06.22.15Z" />
    <path class="cls-1"
      d="M112.15,218.57l-3.9.15h-4.03c.12,0,.23-.1.23-.23v-.08l3.79-.15h3.7s-.02.05-.02.08c0,.13.11.23.23.23Z" />
    <path class="cls-1" d="M108.25,218.26l3.88-.15c-.09.01-.16.07-.19.15h-3.69Z" />
    <polygon class="cls-1" points="108.24 218.26 104.45 218.41 104.45 218.26 108.24 218.26" />
    <path class="cls-1"
      d="M108.24,218.72l-98.8,3.79c.12-.02.21-.14.19-.27,0-.11-.12-.19-.23-.19l94.59-3.63v.06h0c0,.14.1.24.23.24h4.02Z" />
    <path class="cls-1" d="M104.45,218.41v.08c0,.13-.11.23-.23.23-.13,0-.23-.1-.23-.23h0s0-.05.02-.07h.44Z" />
    <path class="cls-1" d="M104.45,218.26v.15h-.44c.02-.09.11-.15.21-.15h.23Z" />
    <path class="cls-1"
      d="M104.45,202.19v16.07h-.23c-.1,0-.19.06-.21.16h-.02v-16.23c0,.13.1.23.23.23.12,0,.23-.1.23-.23Z" />
    <path class="cls-1" d="M104.45,23.82v178.37c0-.13-.11-.23-.23-.23-.13,0-.23.1-.23.23V23.82" />
    <circle class="cls-1" cx="104.22" cy="202.19" r=".23" />
    <path class="cls-1" d="M103.99,218.42h.02s-.02.04-.02.06v-.06Z" />
    <path class="cls-1"
      d="M9.63,222.24c.02.13-.07.25-.19.27h-.04c-.12,0-.22-.1-.23-.22,0-.13.1-.24.23-.24.11,0,.22.08.23.19Z" />
    <path class="cls-1"
      d="M9.37,222.05h.03c-.13,0-.23.11-.23.24.01.12.11.22.23.22l-.29.04-.24.09c.12-.06.16-.2.1-.31-.05-.11-.18-.15-.28-.11l.31-.11.37-.06Z" />
    <path class="cls-1"
      d="M8.97,222.33c.06.11.02.25-.1.31h-.03s-.05.03-.08.03c-.09,0-.18-.06-.21-.16-.04-.1,0-.2.08-.26l.06-.03c.1-.04.23,0,.28.11Z" />
    <path class="cls-1"
      d="M8.84,222.65l-7.87,4.09v-.14c0-.13-.11-.23-.23-.23-.07,0-.12.03-.16.07.01-.03.03-.04.05-.05l8-4.14c-.08.06-.12.16-.08.26.03.1.12.16.21.16.03,0,.06-.01.08-.02Z" />
    <path class="cls-1" d="M.97,251.58v.23c0,.13-.11.23-.23.23-.13,0-.23-.1-.23-.23s.1-.23.23-.23h.23Z" />
    <path class="cls-1" d="M.97,226.74v24.84h-.46v-24.94s.01.04.02.07c.04.08.12.12.21.12.03,0,.07-.01.1-.02l.13-.07Z" />
    <path class="cls-1"
      d="M.97,226.6v.14l-.13.07s-.07.02-.1.02c-.09,0-.17-.04-.21-.12,0-.03-.02-.05-.02-.07v-.04c0-.06.02-.12.07-.16.04-.04.09-.07.16-.07.12,0,.23.1.23.23Z" />
    <path class="cls-1" d="M.51,251.58h.23c-.13,0-.23.1-.23.23v-.23Z" />
    <path class="cls-1" d="M.58,226.44c-.05.04-.07.1-.07.16v.04c-.02-.08.01-.16.07-.2Z" />
    <polygon class="cls-1"
      points="243.36 23.35 103.99 23.35 103.99 23.82 243.36 23.82 243.36 23.62 243.36 23.58 243.36 23.35" />
    <path class="cls-1" d="M243.13,23.82h-.23v178.37c0-.13.1-.23.23-.23s.23.1.23.23V23.82h-.23Z" />
  </g>
  <g id="displaypapm">
    <path class="cls-3"
      d="M173.7,0c-23.03,0-45.08,16.37-43.65,23.62,1.22,6.15,20.04,9.19,87.29,0-2.29-3.12-17.87-23.62-43.64-23.62ZM173.67,20.11c-4.48,0-8.11-3.76-8.11-8.39s3.63-8.39,8.11-8.39,8.11,3.76,8.11,8.39-3.63,8.39-8.11,8.39Z" />
    <rect id="displaypap" class="papcol" x="130.03" y="23.59" width="87.29" height="47.14" />
    <g>
      <path class="cls-7"
        d="M136.67,37.4c.51-.09,1.18-.16,2.03-.16,1.05,0,1.81.25,2.3.69.45.39.72,1,.72,1.74s-.22,1.34-.63,1.77c-.56.6-1.47.91-2.51.91-.32,0-.61-.01-.85-.07v3.32h-1.06v-8.2ZM137.73,41.41c.23.06.52.09.88.09,1.28,0,2.06-.63,2.06-1.77s-.77-1.62-1.93-1.62c-.46,0-.81.04-1,.09v3.23Z" />
      <path class="cls-7"
        d="M143.44,42.99l-.85,2.61h-1.09l2.78-8.3h1.28l2.8,8.3h-1.13l-.88-2.61h-2.91ZM146.13,42.16l-.8-2.39c-.18-.54-.3-1.03-.43-1.51h-.02c-.12.49-.26,1-.41,1.5l-.8,2.4h2.47Z" />
      <path class="cls-7"
        d="M149.55,37.4c.51-.09,1.18-.16,2.03-.16,1.05,0,1.81.25,2.3.69.45.39.72,1,.72,1.74s-.22,1.34-.63,1.77c-.56.6-1.47.91-2.51.91-.32,0-.61-.01-.85-.07v3.32h-1.06v-8.2ZM150.61,41.41c.23.06.52.09.88.09,1.28,0,2.06-.63,2.06-1.77s-.77-1.62-1.93-1.62c-.46,0-.81.04-1,.09v3.23Z" />
      <path class="cls-7" d="M157.08,37.31v8.3h-1.06v-8.3h1.06Z" />
      <path class="cls-7"
        d="M158.93,37.42c.54-.11,1.3-.17,2.03-.17,1.13,0,1.86.21,2.37.68.41.37.64.94.64,1.58,0,1.1-.68,1.82-1.54,2.12v.04c.63.22,1.01.81,1.2,1.67.27,1.16.46,1.96.63,2.28h-1.09c-.13-.23-.32-.95-.55-1.98-.24-1.15-.68-1.58-1.64-1.61h-1v3.6h-1.06v-8.19ZM159.98,41.2h1.08c1.13,0,1.85-.63,1.85-1.58,0-1.07-.77-1.54-1.88-1.55-.51,0-.88.05-1.05.1v3.03Z" />
    </g>
  </g>
  <g id="garbagebox">
    <rect id="garbageboxrect" class="cls-8" x=".5" y="251.58" width="346.34" height="434.34" />
  </g>
</svg>