<?xml version="1.0" encoding="UTF-8"?>
<svg id="Layer_1" data-name="Layer 1" xmlns="http://www.w3.org/2000/svg" viewBox="0 0 425.2 425.2">
  <defs>
    <style>
      .cls-1 {
        fill: #0074a6;
      }

      .cls-1, .cls-2 {
        stroke-width: 0px;
      }

      .cls-2 {
        fill: #fff;
      }
    </style>
  </defs>
  <rect class="cls-1" width="425.2" height="425.2"/>
  <g>
    <polygon class="cls-2" points="317.35 94.49 174.8 94.49 174.8 146.46 265.38 146.46 317.35 94.49"/>
    <polygon class="cls-2" points="372.86 147.63 341.65 96.91 277.65 160.91 308.86 211.63 372.86 147.63"/>
    <polygon class="cls-2" points="259.12 165.35 85.04 165.35 60.47 226.77 234.55 226.77 259.12 165.35"/>
    <polygon class="cls-2" points="262.2 208.51 247.34 245.67 85.04 245.67 85.04 330.71 262.2 330.71 262.2 208.51"/>
    <polygon class="cls-2" points="305.31 241.91 281.1 202.58 281.1 318.9 340.16 259.84 340.16 207.06 305.31 241.91"/>
    <polygon class="cls-2" points="155.91 146.46 155.91 94.49 103.94 146.46 155.91 146.46"/>
  </g>
</svg>